<?xml version="1.0" standalone="no"?>
<!DOCTYPE svg PUBLIC "-//W3C//DTD SVG 20010904//EN"
 "http://www.w3.org/TR/2001/REC-SVG-20010904/DTD/svg10.dtd">
<svg version="1.0" xmlns="http://www.w3.org/2000/svg"
 width="1574.000000pt" height="1574.000000pt" viewBox="0 0 1574.000000 1574.000000"
 preserveAspectRatio="xMidYMid meet">

<g transform="translate(0.000000,1574.000000) scale(0.100000,-0.100000)"
fill="#000000" stroke="none">
<path d="M6305 12248 c487 -55 934 -266 1289 -608 243 -235 434 -529 541 -833
23 -65 44 -115 47 -111 4 3 4 -5 1 -18 -3 -12 -2 -20 2 -16 5 4 14 3 22 -4 7
-6 16 -8 20 -4 3 3 1 6 -6 6 -8 0 -9 5 -2 19 8 14 7 20 -4 25 -17 6 -20 26 -4
26 5 0 7 -5 3 -12 -4 -7 -3 -8 5 -4 9 6 9 11 1 21 -6 7 -8 20 -4 29 3 9 1 16
-5 16 -6 0 -11 -8 -12 -17 0 -10 -3 -13 -5 -6 -3 7 -1 21 5 31 8 15 7 23 -3
31 -7 6 -17 7 -21 3 -5 -4 -5 -1 -1 6 6 9 11 10 20 3 10 -8 18 -5 31 9 10 11
13 20 7 20 -7 0 -12 -4 -12 -10 0 -5 -6 -7 -13 -4 -15 5 -19 34 -5 34 5 0 3
10 -3 22 -10 18 -8 24 7 36 13 10 15 16 6 19 -6 3 -10 9 -6 14 11 18 -7 31
-24 17 -15 -12 -16 -11 -3 5 8 10 20 16 27 13 7 -3 16 -1 19 4 4 6 1 10 -5 10
-6 0 -4 13 6 33 16 30 16 31 0 18 -13 -11 -19 -12 -29 -2 -9 10 -8 11 5 6 12
-5 16 -2 13 12 -2 10 -4 18 -5 18 -1 0 -3 10 -4 23 -2 15 2 21 10 18 8 -3 12
3 11 15 -1 14 -6 17 -20 13 -13 -4 -17 -2 -13 5 4 6 14 11 23 11 12 0 12 3 -4
18 -10 9 -13 13 -6 8 10 -6 12 -4 7 8 -4 10 -1 16 9 16 20 0 11 36 -10 45 -13
4 -14 3 -3 -10 7 -9 10 -18 7 -21 -8 -9 -29 35 -22 46 3 6 1 10 -5 10 -6 0 -8
5 -5 10 4 6 11 8 16 5 5 -4 9 0 9 9 0 8 3 16 8 19 4 2 1 2 -5 1 -7 -2 -13 1
-13 6 0 6 4 10 9 10 5 0 12 7 15 16 5 14 4 15 -9 4 -9 -7 -19 -9 -23 -5 -4 4
-1 10 6 12 6 3 9 9 6 14 -3 6 0 16 6 24 9 11 9 18 -4 30 -20 20 -20 21 0 29 8
3 12 2 9 -4 -10 -16 1 -11 16 7 10 11 10 14 2 9 -8 -4 -13 -2 -13 4 0 6 -5 8
-12 4 -7 -5 -8 -3 -2 7 12 20 14 89 2 89 -5 0 -7 -4 -3 -9 3 -5 1 -12 -4 -15
-15 -10 -7 20 11 37 17 17 17 84 1 96 -5 3 -8 13 -8 21 1 8 -2 20 -7 26 -5 6
-2 11 8 11 10 0 14 -7 11 -19 -3 -10 -1 -15 4 -12 6 3 9 15 7 27 -2 14 2 21
10 19 10 -2 10 2 0 17 -7 11 -16 17 -22 14 -5 -4 -7 1 -2 12 4 11 0 25 -9 35
-18 19 -5 36 18 25 6 -4 3 1 -8 10 -16 12 -17 18 -7 24 11 7 11 9 -1 14 -9 3
-13 14 -10 31 6 27 15 28 87 5 39 -12 46 -3 10 13 -16 6 -40 22 -54 35 -15 13
-38 24 -53 25 -15 1 -27 6 -27 11 0 4 -4 5 -10 2 -5 -3 -10 -2 -10 4 0 6 -10
15 -21 22 -14 7 -19 7 -15 0 5 -7 -3 -7 -24 1 -21 7 -29 15 -26 25 5 13 -31
35 -45 27 -4 -2 -9 3 -13 11 -3 8 -14 15 -25 15 -11 0 -23 5 -26 10 -4 6 -11
7 -17 4 -7 -4 -8 -2 -4 4 4 7 2 12 -4 12 -6 0 -8 5 -5 10 5 8 -21 15 -46 12
-4 -1 -15 8 -24 18 -18 20 -35 20 -819 19 -536 -1 -775 -5 -721 -11z m1920
-218 c3 -5 1 -10 -4 -10 -6 0 -11 5 -11 10 0 6 2 10 4 10 3 0 8 -4 11 -10z
m-5 -230 c0 -5 -4 -10 -10 -10 -5 0 -10 5 -10 10 0 6 5 10 10 10 6 0 10 -4 10
-10z"/>
<path d="M7846 12253 c5 -5 12 -12 16 -18 4 -6 8 -2 8 8 0 9 -7 17 -17 17 -9
0 -12 -3 -7 -7z"/>
<path d="M8212 10916 c7 -8 15 -12 17 -11 5 6 -10 25 -20 25 -5 0 -4 -6 3 -14z"/>
<path d="M8195 10630 c-3 -6 1 -7 9 -4 18 7 21 14 7 14 -6 0 -13 -4 -16 -10z"/>
<path d="M8180 9470 c0 -5 7 -7 15 -4 8 4 15 8 15 10 0 2 -7 4 -15 4 -8 0 -15
-4 -15 -10z"/>
<path d="M8190 9439 c0 -5 -4 -8 -8 -5 -4 2 -23 -41 -42 -97 -39 -115 -157
-359 -222 -457 -89 -136 -175 -239 -307 -370 -154 -152 -284 -252 -467 -357
l-126 -72 80 -40 c106 -53 266 -162 383 -259 266 -223 489 -527 620 -847 18
-44 36 -82 39 -85 3 -3 5 -9 5 -15 1 -24 17 -75 26 -80 5 -4 5 5 -1 19 -9 25
-3 32 24 27 5 -1 5 4 -1 11 -6 7 -9 24 -7 38 3 18 1 21 -5 11 -5 -8 -8 -23 -5
-34 2 -11 0 -17 -3 -13 -11 10 -13 38 -4 55 13 25 21 91 11 91 -5 0 -11 -10
-13 -22 -3 -13 -4 1 -2 30 2 33 10 61 21 75 10 12 12 16 4 10 -20 -19 -32 -16
-22 5 15 28 24 74 13 68 -5 -3 -11 1 -14 8 -3 8 -1 16 6 19 6 2 12 28 13 58 2
40 0 48 -7 32 -12 -32 -16 -29 -11 7 2 16 8 27 13 25 14 -9 6 39 -9 58 -14 15
-13 17 4 17 15 0 16 2 5 9 -8 5 -15 19 -16 32 -2 19 0 20 10 6 9 -13 11 -9 11
23 -1 21 -4 42 -8 46 -14 13 -8 26 8 20 15 -6 15 -4 0 18 -10 16 -12 27 -5 31
7 5 6 11 -1 20 -8 10 -7 16 7 25 16 10 16 11 -5 6 -22 -4 -23 -4 -8 19 11 17
13 26 4 31 -7 5 -8 3 -3 -6 6 -9 4 -11 -5 -5 -10 6 -10 10 3 20 14 10 14 12
-1 21 -13 9 -13 12 -2 19 9 6 11 4 5 -6 -7 -12 -5 -12 6 -1 12 11 12 14 -1 22
-10 7 -11 10 -2 10 6 0 12 8 11 18 0 10 -3 12 -6 5 -8 -22 -18 -14 -19 15 -1
15 1 21 3 15 3 -7 9 -13 14 -13 6 0 6 8 -1 19 -13 25 -13 34 0 26 14 -9 12 18
-2 34 -7 8 -8 11 -2 8 7 -4 9 8 4 39 -5 35 -4 47 7 51 12 5 12 7 0 17 -18 14
-31 50 -16 40 8 -5 10 8 6 45 -3 30 -2 49 4 46 5 -4 9 -1 9 4 0 6 -4 11 -10
11 -5 0 -6 7 -3 17 4 10 2 14 -4 10 -7 -5 -9 0 -6 13 3 11 10 17 16 13 7 -4 8
0 4 11 -4 10 -7 22 -7 27 0 6 -5 7 -12 3 -7 -4 -8 -3 -4 5 4 6 12 9 17 6 8 -6
10 2 12 53 1 9 -4 16 -11 14 -9 -1 -7 6 4 23 14 22 14 25 1 25 -8 0 -17 -5
-19 -12 -3 -7 -7 -5 -11 6 -4 10 -3 15 3 11 6 -3 10 1 10 10 0 9 5 13 10 10 6
-3 10 3 10 14 0 12 -7 21 -16 21 -8 0 -12 5 -9 10 4 6 10 8 14 6 4 -3 13 4 20
16 7 11 8 17 2 13 -6 -3 -11 -1 -11 5 0 6 -6 8 -12 4 -10 -6 -10 -4 0 7 15 16
16 33 0 23 -7 -5 -8 -3 -2 7 5 8 8 23 6 34 -2 17 -1 17 8 -2 5 -13 11 -23 14
-23 9 0 0 28 -14 45 -19 23 -21 43 -4 49 8 3 14 11 14 18 0 9 -3 9 -10 -2 -5
-8 -12 -12 -15 -8 -3 3 1 12 9 20 9 10 11 20 5 29 -5 8 -9 21 -9 29 1 11 4 10
15 -4 8 -11 15 -15 15 -10 0 6 -5 15 -11 21 -15 15 -3 66 13 57 7 -4 8 -3 4 5
-4 6 -12 9 -17 6 -5 -4 -10 2 -10 12 -2 24 -2 25 6 46 6 13 3 16 -10 11 -13
-5 -16 -3 -13 7 3 8 9 13 14 12 5 -1 9 9 9 22 0 13 -4 20 -10 17 -5 -3 -2 4 8
15 9 11 14 23 10 27 -4 4 -7 19 -8 34 0 18 -6 26 -15 24 -9 -1 -6 5 7 17 24
20 21 33 -5 25 -10 -3 -6 2 8 10 14 8 19 15 12 16 -7 0 -10 5 -7 10 4 6 11 7
17 4 7 -4 8 -2 4 5 -4 6 -12 9 -17 6 -12 -8 -11 2 3 28 10 20 10 21 -6 8 -14
-12 -16 -12 -10 4 5 12 1 23 -12 33 -18 14 -18 14 4 9 18 -4 22 -1 22 19 0 13
-4 24 -10 24 -5 0 -10 5 -10 11 0 5 4 8 9 4 5 -3 12 -1 16 5 3 5 1 10 -4 10
-6 0 -11 5 -11 11 0 5 6 7 13 3 9 -6 9 -5 0 7 -7 8 -12 24 -11 34 0 11 -3 29
-7 39 -6 14 -5 17 3 12 8 -4 10 -2 6 7 -3 8 -1 18 5 22 8 4 8 12 1 26 -6 10
-8 19 -4 19 3 0 0 8 -7 17 -8 9 -9 14 -3 10 7 -4 12 2 12 18 0 14 -2 25 -4 25
-2 0 -4 -5 -4 -11z m4 -88 c4 -5 -3 -7 -14 -4 -23 6 -26 13 -6 13 8 0 17 -4
20 -9z m-9 -201 c3 -5 1 -10 -4 -10 -6 0 -11 5 -11 10 0 6 2 10 4 10 3 0 8 -4
11 -10z m5 -255 c7 -9 8 -15 2 -15 -5 0 -12 7 -16 15 -3 8 -4 15 -2 15 2 0 9
-7 16 -15z m0 -185 c0 -5 -2 -10 -4 -10 -3 0 -8 5 -11 10 -3 6 -1 10 4 10 6 0
11 -4 11 -10z m-31 -457 c-3 -19 2 -27 10 -14 6 9 11 10 15 3 4 -6 -3 -16 -15
-22 -13 -7 -19 -8 -15 -2 3 6 2 13 -4 17 -6 4 -8 11 -5 16 7 11 15 12 14 2z
m8 -808 c0 -8 -4 -12 -9 -9 -5 3 -6 10 -3 15 9 13 12 11 12 -6z m8 -125 c3 -5
-1 -10 -10 -10 -9 0 -13 5 -10 10 3 6 8 10 10 10 2 0 7 -4 10 -10z m2 -125 c0
-8 -4 -12 -9 -9 -5 3 -6 10 -3 15 9 13 12 11 12 -6z m-13 -306 c-3 -5 -10 -7
-15 -3 -5 3 -7 10 -3 15 3 5 10 7 15 3 5 -3 7 -10 3 -15z"/>
<path d="M8170 6980 c0 -5 5 -10 10 -10 6 0 10 5 10 10 0 6 -4 10 -10 10 -5 0
-10 -4 -10 -10z"/>
<path d="M8150 5400 c0 -5 5 -10 10 -10 6 0 10 5 10 10 0 6 -4 10 -10 10 -5 0
-10 -4 -10 -10z"/>
<path d="M8125 5326 c-30 -86 -128 -286 -187 -381 -317 -509 -845 -879 -1425
-999 -137 -29 -114 -32 115 -15 516 37 1092 115 1430 194 96 23 108 28 109 48
0 12 -1 16 -4 9 -3 -6 -8 -10 -13 -7 -10 6 -1 45 11 45 5 0 1 18 -8 41 -13 35
-14 42 -2 50 10 6 10 9 2 9 -7 0 -13 5 -13 11 0 5 4 8 8 5 4 -2 9 4 9 15 1 10
-4 19 -12 19 -8 0 -16 4 -20 9 -3 6 3 8 14 6 17 -3 19 1 16 31 -2 23 1 32 8
28 7 -3 4 1 -5 9 -19 15 -25 32 -8 22 6 -3 10 3 10 14 0 12 -4 21 -10 21 -5 0
-6 7 -3 17 5 12 3 14 -7 8 -9 -5 -11 -4 -6 3 12 19 36 14 30 -5 -5 -15 -4 -15
5 -3 7 10 6 19 -4 30 -13 14 -12 19 2 41 9 13 10 18 3 12 -8 -7 -17 -13 -21
-13 -10 0 -5 30 7 38 11 8 11 43 0 60 -3 6 2 16 11 22 16 10 16 11 1 6 -10 -3
-20 -1 -23 4 -4 6 2 10 12 11 10 0 13 3 6 5 -9 4 -9 13 -2 31 5 13 6 30 2 36
-10 17 -10 70 1 95 7 16 6 26 -4 35 -10 10 -12 8 -6 -8 5 -14 4 -17 -4 -9 -7
7 -6 20 6 43 13 26 14 35 4 44 -10 9 -11 9 -6 0 3 -6 2 -14 -3 -17 -11 -7 -9
13 3 33 12 19 15 71 4 71 -4 0 -8 -5 -8 -12 0 -6 -3 -8 -6 -5 -4 4 -2 13 4 20
7 8 9 17 5 20 -3 4 -2 7 3 7 14 0 10 46 -6 65 -7 9 -9 15 -4 14 21 -4 26 2 14
16 -9 10 -9 15 -1 15 16 0 9 22 -14 42 -20 17 -20 17 1 13 13 -2 21 2 21 11 0
8 -5 14 -11 14 -6 0 -3 6 6 14 16 12 16 13 -1 28 -17 14 -19 12 -36 -36z m35
-530 c0 -3 -4 -8 -10 -11 -5 -3 -10 -1 -10 4 0 6 5 11 10 11 6 0 10 -2 10 -4z"/>
<path d="M9690 4954 c-328 -262 -715 -491 -1112 -659 l-138 -59 0 -168 0 -168
513 0 c281 0 517 4 522 8 12 8 13 72 2 90 -5 6 -4 12 1 12 6 0 13 7 16 16 6
15 4 15 -11 3 -10 -7 -15 -9 -11 -5 4 5 3 15 -4 23 -6 7 -8 16 -4 20 3 3 6 1
6 -5 0 -7 4 -12 9 -12 12 0 9 110 -3 129 -5 8 -5 12 0 9 5 -4 10 5 10 18 1 13
-3 24 -8 24 -7 0 -6 5 1 14 8 10 8 16 -2 25 -8 6 -18 7 -22 3 -5 -4 -5 -2 -1
5 4 7 13 10 21 6 11 -3 15 2 15 19 0 13 6 30 13 37 7 9 7 11 1 8 -7 -4 -15 0
-18 9 -5 12 -2 15 9 10 10 -4 14 -2 9 5 -4 6 0 16 7 21 10 7 8 8 -8 5 -25 -6
-32 10 -8 19 17 7 47 63 40 74 -3 4 2 11 11 14 10 4 14 12 10 23 -4 9 -1 20 6
25 10 6 10 8 1 8 -7 0 -13 7 -13 16 0 8 4 13 8 10 4 -2 13 4 20 15 10 15 10
19 0 19 -7 0 -2 7 10 16 12 8 20 20 17 25 -4 5 -1 9 6 9 7 0 9 3 6 7 -4 3 4
21 18 39 14 18 25 37 25 42 0 6 5 12 11 14 5 2 11 12 13 21 1 10 7 22 13 25 6
4 26 35 44 70 53 99 55 102 62 95 4 -3 7 2 7 11 0 10 9 31 21 47 11 16 17 29
12 29 -4 0 -73 -52 -153 -116z m-140 -432 c0 -5 -7 -9 -15 -9 -8 0 -12 4 -9 9
3 4 9 8 15 8 5 0 9 -4 9 -8z m-40 -82 c0 -5 -5 -10 -11 -10 -5 0 -7 5 -4 10 3
6 8 10 11 10 2 0 4 -4 4 -10z m-35 -110 c3 -5 1 -10 -4 -10 -6 0 -11 5 -11 10
0 6 2 10 4 10 3 0 8 -4 11 -10z m0 -200 c-3 -5 -12 -10 -18 -10 -7 0 -6 4 3
10 19 12 23 12 15 0z m5 -150 c0 -5 -2 -10 -4 -10 -3 0 -8 5 -11 10 -3 6 -1
10 4 10 6 0 11 -4 11 -10z"/>
<path d="M6338 3913 c6 -2 18 -2 25 0 6 3 1 5 -13 5 -14 0 -19 -2 -12 -5z"/>
</g>
</svg>
